<svg height="800" viewBox="0 0 28 28" width="800" xmlns="http://www.w3.org/2000/svg"><path d="m128 935h-4c-2.209 0-4 1.791-4 4v4c0 2.209 1.791 4 4 4h4c2.209 0 4-1.791 4-4v-4c0-2.209-1.791-4-4-4zm0 16h-4c-2.209 0-4 1.791-4 4v4c0 2.209 1.791 4 4 4h4c2.209 0 4-1.791 4-4v-4c0-2.209-1.791-4-4-4zm-16 0h-4c-2.209 0-4 1.791-4 4v4c0 2.209 1.791 4 4 4h4c2.209 0 4-1.791 4-4v-4c0-2.209-1.791-4-4-4zm0-16h-4c-2.209 0-4 1.791-4 4v4c0 2.209 1.791 4 4 4h4c2.209 0 4-1.791 4-4v-4c0-2.209-1.791-4-4-4z" fill-rule="evenodd" transform="translate(-104 -935)"/></svg>