<svg height="800" viewBox="0 -3.5 29 29" width="800" xmlns="http://www.w3.org/2000/svg"><path d="m598 227h-16c-1.104 0-2 .896-2 2s.896 2 2 2h16c1.104 0 2-.896 2-2s-.896-2-2-2zm0-8h-16c-1.104 0-2 .896-2 2s.896 2 2 2h16c1.104 0 2-.896 2-2s-.896-2-2-2zm-16-4h16c1.104 0 2-.896 2-2s-.896-2-2-2h-16c-1.104 0-2 .896-2 2s.896 2 2 2zm-8 11c-1.657 0-3 1.343-3 3s1.343 3 3 3 3-1.343 3-3-1.343-3-3-3zm0-8c-1.657 0-3 1.343-3 3s1.343 3 3 3 3-1.343 3-3-1.343-3-3-3zm0-8c-1.657 0-3 1.343-3 3s1.343 3 3 3 3-1.343 3-3-1.343-3-3-3z" fill-rule="evenodd" transform="translate(-571 -210)"/></svg>